<svg version="1.1" xmlns="http://www.w3.org/2000/svg" xmlns:xlink="http://www.w3.org/1999/xlink" width="105.7864" height="25.002" viewBox="0,0,105.7864,25.002"><g transform="translate(-227.4624,-181.1581)"><g data-paper-data="{&quot;isPaintingLayer&quot;:true}" fill-rule="nonzero" stroke="none" stroke-linecap="round" stroke-linejoin="miter" stroke-miterlimit="10" stroke-dasharray="" stroke-dashoffset="0" style="mix-blend-mode: normal"><path d="M254.8044,187.1834l6.6488,17.621l-12.9705,-0.1817z" fill="#0090ff" stroke-width="0.72664"/><path d="M305.0114,181.1581l7.8716,20.862l-15.3561,-0.2151z" fill="#ff5695" stroke-width="0.86029"/><path d="M322.4044,185.2834l6.6488,17.621l-12.9705,-0.1817z" fill="#ff5695" stroke-width="0.72664"/><path d="M227.4624,198.8638l3.6232,1.3641l3.41,-5.6266l3.4101,4.5609l2.9838,-3.1969l2.6428,1.4919l5.0298,-7.1185l4.4757,8.8235l1.9181,-0.2984v7.2464h-27.4935z" fill="#0090ff" stroke-width="0.85251"/><path d="M253.0816,198.5544l2.0702,0.8369l3.3917,-6.1666l3.5238,5.2856l2.7749,-3.9642l3.8321,7.0476l2.775,-2.9953l3.3036,2.5548l3.5237,-4.0524l3.2155,1.4536v7.488h-28.4105z" fill="#0090ff" stroke-width="0.88094"/><path d="M278.8099,198.5121l2.0957,0.8472l2.8091,-2.6754l3.2996,2.2295l5.7966,-1.8728l2.497,0.8918l3.8793,-6.3317l4.3251,7.6694l4.0577,-0.758v7.5801h-28.7601z" fill="#000000" stroke-width="0.89179"/><path d="M305.5045,198.8477l2.2798,0.8603l4.3875,-8.861l4.8176,7.5705l3.14,-4.4304l3.0111,3.3121l3.14,-1.5916l2.6669,4.0864l4.3014,-0.9463v7.3124h-27.7443z" fill="#000000" stroke-width="0.86029"/></g></g></svg>