<svg version="1.1" xmlns="http://www.w3.org/2000/svg" xmlns:xlink="http://www.w3.org/1999/xlink" width="28.06762" height="32.21596" viewBox="0,0,28.06762,32.21596"><g transform="translate(-236.87079,-192.58789)"><g data-paper-data="{&quot;isPaintingLayer&quot;:true}" fill-rule="nonzero" stroke-linecap="butt" stroke-linejoin="miter" stroke-miterlimit="10" stroke-dasharray="" stroke-dashoffset="0" style="mix-blend-mode: normal"><path d="M253.0961,196.7652c3.0783,0 5.8669,1.2494 7.8866,3.2691c2.0197,2.0198 3.2692,4.8084 3.2692,7.8867c0,3.0783 -1.2495,5.8669 -3.2692,7.8866c-2.0197,2.0197 -4.8083,3.2691 -7.8866,3.2691c-3.0783,0 -5.8669,-1.2494 -7.8866,-3.2691c-2.0197,-2.0197 -3.2692,-4.8083 -3.2692,-7.8866c0,-3.0783 1.2495,-5.8669 3.2692,-7.8867c2.0197,-2.0197 4.8083,-3.2691 7.8866,-3.2691z" fill="none" stroke="#ffff00" stroke-width="1.37302"/><path d="M253.0875,203.2344c1.311,0 2.4985,0.532 3.3582,1.3917c0.8598,0.8598 1.3918,2.0473 1.3918,3.3583c0,1.311 -0.532,2.4985 -1.3918,3.3582c-0.8597,0.8598 -2.0472,1.3918 -3.3582,1.3918c-1.311,0 -2.4985,-0.532 -3.3583,-1.3918c-0.8597,-0.8597 -1.3917,-2.0472 -1.3917,-3.3582c0,-1.311 0.532,-2.4985 1.3917,-3.3583c0.8598,-0.8597 2.0473,-1.3917 3.3583,-1.3917z" fill="#ffff00" stroke="none" stroke-width="1.1875"/><path d="M242.03624,217.24367c-0.18461,-0.10659 -0.35882,-0.23368 -0.5207,-0.38385c-0.95272,-0.88377 -1.00197,-2.2273 -0.91392,-3.64071c-8.09145,-2.9105 -0.85348,-8.51585 1.5177,-10.91451c1.66311,-1.68239 3.01614,-2.81677 4.50468,-3.96379c0.12888,-0.48497 0.21916,-0.79526 0.25052,-0.8445c0.43261,-0.67916 7.82696,-7.99998 10.11415,-3.39879c0.25218,0.50731 0.34271,1.0389 0.32128,1.58474c1.32534,0.06375 2.5045,0.56716 3.3686,1.73397c0.29981,0.12917 0.5734,0.3094 0.81167,0.55422c0.42734,0.43909 0.68013,0.96731 0.8247,1.54917c0.87037,0.76533 1.57467,1.71137 2.03521,2.8403c0.79185,1.94111 -0.4839,4.16675 -0.8351,6.23353c-0.04736,0.2787 -0.09218,0.55227 -0.13581,0.8208c-0.0167,0.23632 -0.05314,0.46945 -0.11353,0.69848c-0.60335,3.68028 -1.20718,6.36743 -5.65921,8.35102c-0.2874,0.12805 -0.58349,0.22188 -0.88617,0.28859c-2.68093,3.9305 -6.14694,9.02646 -9.90131,3.87127c-1.81921,0.66784 -3.54791,0.82254 -4.26915,-0.52978c-0.86313,-1.61835 -0.94388,-3.26371 -0.5136,-4.85017z" fill="#0090ff" stroke="none" stroke-width="0.5"/></g></g></svg>