<svg version="1.1" xmlns="http://www.w3.org/2000/svg" xmlns:xlink="http://www.w3.org/1999/xlink" width="19.65979" height="19.95102" viewBox="0,0,19.65979,19.95102"><g transform="translate(-244.17144,-198.35882)"><g data-paper-data="{&quot;isPaintingLayer&quot;:true}" fill-rule="nonzero" stroke-linecap="butt" stroke-linejoin="miter" stroke-miterlimit="10" stroke-dasharray="" stroke-dashoffset="0" style="mix-blend-mode: normal"><path d="M253.0261,201.5461c1.7402,0 3.3165,0.7063 4.4583,1.848c1.1417,1.1418 1.848,2.7181 1.848,4.4583c0,1.7402 -0.7063,3.3165 -1.848,4.4583c-1.1418,1.1417 -2.7181,1.848 -4.4583,1.848c-1.7402,0 -3.3166,-0.7063 -4.4583,-1.848c-1.1417,-1.1418 -1.848,-2.7181 -1.848,-4.4583c0,-1.7402 0.7063,-3.3165 1.848,-4.4583c1.1417,-1.1417 2.7181,-1.848 4.4583,-1.848z" fill="none" stroke="#ffff00" stroke-width="0.77616"/><path d="M253.05,203.8c1.104,0 2.104,0.448 2.828,1.172c0.724,0.724 1.172,1.724 1.172,2.828c0,1.104 -0.448,2.104 -1.172,2.828c-0.724,0.724 -1.724,1.172 -2.828,1.172c-1.104,0 -2.104,-0.448 -2.828,-1.172c-0.724,-0.724 -1.172,-1.724 -1.172,-2.828c0,-1.104 0.448,-2.104 1.172,-2.828c0.724,-0.724 1.724,-1.172 2.828,-1.172z" fill="#ffff00" stroke="none" stroke-width="1"/><path d="M263.35068,202.97868c0.29113,0.27816 0.47129,0.61872 0.47991,1.04881c0.00585,0.29206 -0.02886,0.5726 -0.09736,0.84326c0.09479,1.11982 -0.08917,2.05644 -0.47822,2.82677c0.13712,4.5214 -4.18495,10.68479 -8.32656,10.61168c-2.10561,-0.03717 -4.19242,-1.17558 -5.78181,-2.63688c-0.23549,0.72324 -0.8326,1.64018 -2.34665,1.64018c-2.5,0 -2.5,-2.5 -2.5,-2.5c0.07868,-1.42013 -0.46801,-3.02455 0.23603,-4.26039c0.29054,-0.51 0.66303,-0.9549 1.08285,-1.36181c0.16059,-1.27103 0.76847,-2.53185 1.64139,-3.68678c0.14834,-1.48766 0.92573,-2.45875 2.01165,-3.08376c0.5422,-1.68633 1.00015,-3.56827 2.54107,-3.90418c2.35848,-0.51413 5.35197,0.26101 7.15134,1.96349c1.95373,0.22148 3.84615,0.79151 4.35671,2.40459c0.01006,0.03178 0.01994,0.06346 0.02963,0.09502z" fill="#0090ff" stroke="none" stroke-width="0.5"/></g></g></svg>