<svg version="1.1" xmlns="http://www.w3.org/2000/svg" xmlns:xlink="http://www.w3.org/1999/xlink" width="34.63567" height="37.00168" viewBox="0,0,34.63567,37.00168"><g transform="translate(-235.81755,-189.5125)"><g data-paper-data="{&quot;isPaintingLayer&quot;:true}" fill-rule="nonzero" stroke-linecap="butt" stroke-linejoin="miter" stroke-miterlimit="10" stroke-dasharray="" stroke-dashoffset="0" style="mix-blend-mode: normal"><path d="M253.2029,196.5535c3.2147,0 6.1268,1.3048 8.236,3.414c2.1092,2.1092 3.414,5.0214 3.414,8.2361c0,3.2146 -1.3048,6.1268 -3.414,8.236c-2.1092,2.1092 -5.0213,3.414 -8.236,3.414c-3.2147,0 -6.1268,-1.3048 -8.236,-3.414c-2.1092,-2.1092 -3.414,-5.0214 -3.414,-8.236c0,-3.2147 1.3048,-6.1269 3.414,-8.2361c2.1092,-2.1092 5.0213,-3.414 8.236,-3.414z" fill="none" stroke="#ffff00" stroke-width="1.43385"/><path d="M253.1875,202.4469c1.587,0 3.0245,0.644 4.0652,1.6847c1.0408,1.0408 1.6848,2.4783 1.6848,4.0653c0,1.587 -0.644,3.0245 -1.6848,4.0652c-1.0407,1.0408 -2.4782,1.6848 -4.0652,1.6848c-1.587,0 -3.0245,-0.644 -4.0652,-1.6848c-1.0408,-1.0407 -1.6848,-2.4782 -1.6848,-4.0652c0,-1.587 0.644,-3.0245 1.6848,-4.0653c1.0407,-1.0407 2.4782,-1.6847 4.0652,-1.6847z" fill="#ffff00" stroke="none" stroke-width="1.4375"/><path d="M255.58872,225.34743c-0.90722,0.78748 -2.03105,1.26033 -3.4521,1.15116c-0.9256,-0.07111 -1.89866,-1.04104 -2.81363,-2.35836c-1.17025,-0.20841 -2.05873,-1.23104 -2.05873,-2.46118c0,-0.28502 0.0477,-0.55889 0.13554,-0.81409c-0.54977,0.05758 -1.09717,0.1222 -1.63189,0.22455c-0.46649,-0.82092 -1.0326,-1.6031 -1.58198,-2.39178c-0.62764,0.56917 -1.15928,0.89752 -1.49761,0.81227c-3.66004,-0.92221 -4.93351,-3.43886 -4.97117,-6.14818c-0.62821,-0.4817 -1.16511,-1.0505 -1.56072,-1.69533c-1.17172,-1.90989 1.01977,-4.36678 1.66495,-6.51255c0.03118,-0.10371 0.08084,-0.25567 0.14613,-0.44772c-0.68714,-1.67634 -1.13238,-3.08769 -1.01727,-3.59243c0.46483,-2.03823 2.59468,-3.29012 4.18978,-4.66754c0.43786,-1.00997 0.79254,-1.72712 0.95925,-1.85017c0.48241,-0.35609 1.02755,-0.56246 1.60938,-0.67721c0.58195,-0.42836 1.18791,-0.64682 1.81855,-0.38487c0.21327,0.08859 0.41784,0.18051 0.61396,0.27563c0.57648,0.02353 1.15489,0.0595 1.71555,0.0641c0.92674,-0.56306 1.92182,-1.053 2.80351,-1.66427l3.55956,-2.28177c0.39552,-0.26238 0.87002,-0.41521 1.38021,-0.41521c1.38071,0 2.5,1.11929 2.5,2.5c0,0.1532 -0.01378,0.30319 -0.04017,0.44878l-0.62242,3.8123c1.65447,-0.72239 3.77363,-1.00493 5.10273,0.02846c0.70275,0.54639 1.26742,1.11072 1.7097,1.6887c2.09507,-0.60806 4.39432,-1.24118 5.65151,0.19854c1.60518,1.83823 -0.73804,4.83586 -1.38358,7.18936c-0.59059,2.15319 -1.12204,3.15868 -2.04503,3.84348c-0.1155,0.70883 -0.41646,1.5043 -0.81431,2.36569c2.56886,2.31533 1.41182,5.04239 -1.26275,7.61747c-0.02595,0.09758 -0.05128,0.1934 -0.0758,0.28727c-0.94635,3.62302 -5.39918,4.80794 -8.13509,6.01782zM244.97205,198.6974c-0.06917,0.06188 -0.1297,0.1293 -0.18272,0.20156c0.04684,0.36573 0.10585,0.84544 -0.05584,1.03907c-0.09245,0.11072 -0.19988,0.20936 -0.31787,0.29924c-0.04225,0.64705 -0.01001,1.34716 -0.18806,1.92319c-0.12485,0.40391 -0.25172,0.8077 -0.38282,1.21021c0.10706,-0.09082 0.21577,-0.18252 0.32584,-0.27489c0.23176,-1.21469 0.47802,-2.42714 0.70397,-3.64057c0.04573,-0.24557 0.07473,-0.49992 0.0975,-0.75781zM265.5605,201.88484c-0.00108,0.04971 -0.00274,0.09944 -0.00496,0.14921c0.20247,-0.18107 0.38921,-0.37561 0.54311,-0.59833c0.25413,-0.36777 -0.06421,-0.03233 -0.53814,0.44912z" fill="#0090ff" stroke="none" stroke-width="0.5"/></g></g></svg>