<svg version="1.1" xmlns="http://www.w3.org/2000/svg" xmlns:xlink="http://www.w3.org/1999/xlink" width="42" height="66" viewBox="0,0,42,66"><g transform="translate(-223,-186)"><g data-paper-data="{&quot;isPaintingLayer&quot;:true}" fill-rule="nonzero" stroke-linecap="butt" stroke-linejoin="miter" stroke-miterlimit="10" stroke-dasharray="" stroke-dashoffset="0" style="mix-blend-mode: normal"><path d="M265,219c0,18.505 -5.271,33 -12,33h-17c-6.729,0 -12,-14.495 -12,-33c0,-18.505 5.271,-33 12,-33h17c6.729,0 12,14.495 12,33z" fill="#000000" stroke="none" stroke-width="1"/><path d="M246.5,219c0,17.673 -5.148,32 -11.5,32c-6.352,0 -11.5,-14.327 -11.5,-32c0,-17.673 5.148,-32 11.5,-32c6.352,0 11.5,14.327 11.5,32zM242.5,219c0,-16.239 -5.323,-25 -7.5,-25c-2.177,0 -7.5,8.761 -7.5,25c0,16.239 5.323,25 7.5,25c2.177,0 7.5,-8.761 7.5,-25z" fill="#ff99f1" stroke="none" stroke-width="1"/><path d="M224,219c0,-17.67311 4.92487,-32 11,-32c6.07513,0 11,14.32689 11,32c0,17.67311 -4.92487,32 -11,32c-6.07513,0 -11,-14.32689 -11,-32z" fill="#0090ff" stroke="#0090ff" stroke-width="2"/></g></g></svg>