<svg version="1.1" xmlns="http://www.w3.org/2000/svg" xmlns:xlink="http://www.w3.org/1999/xlink" width="45.57832" height="336.731" viewBox="0,0,45.57832,336.731"><defs><linearGradient x1="240" y1="205.1665" x2="240" y2="144.2998" gradientUnits="userSpaceOnUse" id="color-1"><stop offset="0" stop-color="#ffdc3c"/><stop offset="1" stop-color="#ffdc3c" stop-opacity="0"/></linearGradient></defs><g transform="translate(-229.19564,128.8185)"><g data-paper-data="{&quot;isPaintingLayer&quot;:true}" fill-rule="nonzero" stroke="none" stroke-linecap="butt" stroke-linejoin="miter" stroke-miterlimit="10" stroke-dasharray="" stroke-dashoffset="0" style="mix-blend-mode: normal"><path d="M232.7,205.167c-0.01,-0.057 -0.034,-0.108 -0.034,-0.167c0,-0.552 0.448,-1 1,-1h3.133v-1.708c0,-1.481 1.085,-2.706 2.5,-2.942v-1.699c-1.415,-0.236 -2.5,-1.461 -2.5,-2.942v-3.417c0,-1.481 1.085,-2.706 2.5,-2.942v-1.699c-1.415,-0.236 -2.5,-1.461 -2.5,-2.942v-3.417c0,-1.481 1.085,-2.706 2.5,-2.942v-1.699c-1.415,-0.236 -2.5,-1.461 -2.5,-2.942v-3.417c0,-1.481 1.085,-2.706 2.5,-2.942v-1.699c-1.415,-0.236 -2.5,-1.461 -2.5,-2.942v-3.417c0,-1.481 1.085,-2.706 2.5,-2.942v-1.699c-1.415,-0.236 -2.5,-1.461 -2.5,-2.942v-3.417c0,-1.65 1.343,-2.992 2.992,-2.992h0.417c1.65,0 2.992,1.343 2.992,2.992v3.417c0,1.481 -1.085,2.706 -2.5,2.942v1.699c1.415,0.236 2.5,1.461 2.5,2.942v3.417c0,1.481 -1.085,2.706 -2.5,2.942v1.699c1.415,0.236 2.5,1.461 2.5,2.942v3.417c0,1.481 -1.085,2.706 -2.5,2.942v1.699c1.415,0.236 2.5,1.461 2.5,2.942v3.417c0,1.481 -1.085,2.706 -2.5,2.942v1.699c1.415,0.236 2.5,1.461 2.5,2.942v3.417c0,1.481 -1.085,2.706 -2.5,2.942v1.699c1.415,0.236 2.5,1.461 2.5,2.942v1.708h3.134c0.552,0 1,0.448 1,1c0,0.06 -0.024,0.111 -0.034,0.167zM239.299,152.214v-0.714c0,-0.387 0.313,-0.7 0.7,-0.7c0.387,0 0.7,0.313 0.7,0.7v0.713c0.636,-0.208 1.1,-0.8 1.1,-1.505v-3.417c0,-0.877 -0.714,-1.591 -1.591,-1.591h-0.417c-0.877,0 -1.591,0.714 -1.591,1.591v3.417c0,0.705 0.464,1.298 1.099,1.506zM239.3,163.214v-0.714c0,-0.387 0.313,-0.7 0.7,-0.7c0.387,0 0.7,0.313 0.7,0.7v0.713c0.636,-0.208 1.1,-0.8 1.1,-1.505v-3.417c0,-0.704 -0.464,-1.297 -1.1,-1.505v0.714c0,0.387 -0.313,0.7 -0.7,0.7c-0.387,0 -0.7,-0.313 -0.7,-0.7v-0.714c-0.636,0.208 -1.1,0.8 -1.1,1.505v3.417c0,0.705 0.464,1.298 1.1,1.506zM239.3,174.214v-0.714c0,-0.387 0.313,-0.7 0.7,-0.7c0.387,0 0.7,0.313 0.7,0.7v0.713c0.636,-0.208 1.1,-0.8 1.1,-1.505v-3.417c0,-0.704 -0.464,-1.297 -1.1,-1.505v0.714c0,0.387 -0.313,0.7 -0.7,0.7c-0.387,0 -0.7,-0.313 -0.7,-0.7v-0.714c-0.636,0.208 -1.1,0.8 -1.1,1.505v3.417c0,0.705 0.464,1.298 1.1,1.506zM239.3,185.214v-0.714c0,-0.387 0.313,-0.7 0.7,-0.7c0.387,0 0.7,0.313 0.7,0.7v0.713c0.636,-0.208 1.1,-0.8 1.1,-1.505v-3.417c0,-0.704 -0.464,-1.297 -1.1,-1.505v0.714c0,0.387 -0.313,0.7 -0.7,0.7c-0.387,0 -0.7,-0.313 -0.7,-0.7v-0.714c-0.636,0.208 -1.1,0.8 -1.1,1.505v3.417c0,0.705 0.464,1.298 1.1,1.506zM239.3,196.214v-0.714c0,-0.387 0.313,-0.7 0.7,-0.7c0.387,0 0.7,0.313 0.7,0.7v0.713c0.636,-0.208 1.1,-0.8 1.1,-1.505v-3.417c0,-0.704 -0.464,-1.297 -1.1,-1.505v0.714c0,0.387 -0.313,0.7 -0.7,0.7c-0.387,0 -0.7,-0.313 -0.7,-0.7v-0.714c-0.636,0.208 -1.1,0.8 -1.1,1.505v3.417c0,0.705 0.464,1.298 1.1,1.506zM238.2,204h3.6v-1.708c0,-0.704 -0.464,-1.297 -1.1,-1.505v0.714c0,0.387 -0.313,0.7 -0.7,0.7c-0.387,0 -0.7,-0.313 -0.7,-0.7v-0.714c-0.636,0.208 -1.1,0.8 -1.1,1.505z" fill="url(#color-1)" stroke-width="1"/><path d="M272.69328,-128.77229c2.46598,0.411 2.05499,2.87698 2.05499,2.87698l-0.53702,3.22211c-2.07029,12.42173 -4.34824,24.96638 -5.46277,37.51938c-1.46605,16.51223 -1.53029,33.27911 -2.29299,49.84098c-0.22806,4.95219 -0.45529,9.90442 -0.68222,14.85666c0,2.05897 0,4.11793 0,6.1769c0,24.53954 0,49.07908 0,73.61862v5c0,1.38071 -1.11929,2.5 -2.5,2.5c-1.29753,0 -2.36419,-0.98848 -2.488,-2.25349l-0.54973,-4.9393c-0.97748,-3.18679 -0.73742,-6.62576 -1.10614,-9.93863c-1.13951,-10.23848 -0.67207,-20.03143 -0.19878,-30.309c0.61421,-13.33752 1.22843,-26.67504 1.84264,-40.01256c0,-19.05682 0,-38.11365 0,-57.17047c-1.40095,8.56891 -2.78233,17.13916 -4.11804,25.71725c0.72889,0.27756 1.29443,0.8863 1.51272,1.64234l1.30988,4.17075l-0.17411,0.05468l0.28073,0.49161c-0.89482,6.80524 -1.64876,13.69905 -2.86179,20.45596c-0.41312,2.30117 -0.9132,4.59275 -1.4599,6.87934c0,0.56092 0,1.12184 0,1.68276c0.45583,-0.6105 1.18401,-1.00577 2.0045,-1.00577c1.38071,0 2.5,1.11929 2.5,2.5v5c0.41401,2.80741 -0.33946,6.63027 -0.70663,9.30371c-0.9071,6.60466 -1.82183,13.20829 -2.73275,19.81242c-0.34596,2.50823 -0.70217,5.01404 -1.06512,7.51814c0,6.45224 0,12.90448 0,19.35672c-0.00606,10.05383 -1.49613,20.12308 -2.4938,30.12469l-0.49355,4.94786c-0.11173,1.27734 -1.18405,2.2793 -2.49039,2.2793c-0.98509,0 -1.83711,-0.56975 -2.24449,-1.3977c-0.0152,0.13998 -0.03034,0.27997 -0.04542,0.41997c-0.3535,3.28202 -0.75406,6.57354 -1.16661,9.87063c-0.02462,0.57983 -0.04953,1.1596 -0.07475,1.73931c0,9.53084 0,19.06168 0,28.59251c0,18.28198 -1.09605,36.50798 -1.56627,54.7765c0.32246,-0.15162 0.68259,-0.23637 1.06252,-0.23637c1.38071,0 2.5,1.11929 2.5,2.5l0,3.38677c1.27289,4.6414 0.40309,9.85486 -0.35601,14.4562l-0.67125,4.02749c-0.179,1.20503 -1.21791,2.12954 -2.47274,2.12954c-0.64712,0 -1.23682,-0.24587 -1.68077,-0.64929c-0.08706,0.0877 -0.17522,0.17513 -0.26433,0.26226l-3.07378,3.91208c-0.45713,0.59296 -1.17452,0.97496 -1.98113,0.97496c-0.53836,0 -1.03697,-0.17017 -1.44499,-0.45965c-0.1625,-0.00398 -0.32722,-0.02948 -0.49396,-0.07918c-2.33623,-0.69643 -2.50125,-4.19646 -3.5139,-6.41401c-2.69705,-5.90616 -2.67271,-11.60172 -2.86827,-17.96135c-0.05407,-1.75847 -0.38017,-3.53084 -0.15468,-5.27562c0.40893,-3.16428 1.57009,-6.48401 5.3852,-5.2913c-0.63669,-2.7804 -1.19309,-5.61078 -1.78271,-8.55551c-0.07588,-0.37899 -1.98982,-9.90774 -2.00493,-10.10877c-0.61583,-8.19069 0.79287,-17.06598 1.18343,-25.27798c0.71259,-14.98306 1.42517,-29.96613 2.13776,-44.94919c0.55423,-11.65349 1.10847,-23.30699 1.6627,-34.96048c0.29454,-6.19318 -0.18078,-13.0439 0.92782,-19.14185c0.8957,-4.92686 2.61005,-9.89306 4.19594,-14.77273c-0.05229,-3.05069 0.2824,-6.16452 2.18409,-7.16387c0.33502,-1.14862 0.67003,-2.29725 1.00505,-3.44587c-0.03462,-1.47427 -0.02104,-2.93881 0.09202,-4.37316c0.39541,-5.01647 1.33542,-10.07227 2.00058,-15.06098c4.1522,-31.1415 9.29118,-62.08497 14.51213,-93.06479c0,-1.35405 0,-4.34899 0,-4.34899c0,-1.38071 1.11929,-2.5 2.5,-2.5c1.38071,0 2.5,1.11929 2.5,2.5v5c0.29147,1.45735 0.27765,2.94493 0.19836,4.43899c1.02191,-6.73728 2.19355,-13.45679 3.30765,-20.14139l0.53702,-3.22211c0,0 0.411,-2.46598 2.87698,-2.05499zM239.80527,104.06817c0.45754,-3.91047 0.95931,-7.81991 1.44849,-11.72213c0,-19.55263 0,-39.10526 0,-58.65789c-0.4593,4.97165 -0.17305,10.27805 -0.40375,15.12882c-0.55423,11.65349 -1.10847,23.30699 -1.6627,34.96048c-0.71259,14.98306 -1.42517,29.96613 -2.13776,44.94919c-0.38064,8.00353 -1.79184,16.68572 -1.19186,24.66557c0.00887,0.11797 0.01832,0.23605 0.02832,0.35425c0.3271,-0.36571 0.76023,-0.63458 1.25108,-0.75829c0.29464,-15.54086 0.71585,-31.07903 1.11448,-46.62584c0,0 0.04547,-1.77342 1.55369,-2.29417zM249.76689,22.74784c0.04136,1.861 0.08271,3.72201 0.12407,5.58301c0.12436,-0.83742 0.24833,-1.67493 0.37181,-2.51256c0,-2.71299 0,-5.42598 0,-8.13897c-0.04571,0.31273 -0.08496,0.62502 -0.11092,0.93643c-0.11492,1.37849 -0.24973,2.75532 -0.38496,4.13209zM249.19736,7.93707c0.01906,0.43923 0.04018,0.87869 0.06261,1.31806c0.47116,0.66007 0.7787,1.49167 1.00279,2.32966c0,-3.27628 0,-6.55255 0,-9.82883c-0.40278,1.95736 -0.75338,3.92088 -1.02683,5.8934c-0.01327,0.09573 -0.02612,0.19164 -0.03857,0.28771zM234.26403,181.49815c0.01255,-0.6945 0.0252,-1.38885 0.03703,-2.08298c-0.94891,-4.25409 -0.35497,-0.24245 -0.03703,2.08298z" fill="#0090ff" stroke-width="0.5"/></g></g></svg>