<svg version="1.1" xmlns="http://www.w3.org/2000/svg" xmlns:xlink="http://www.w3.org/1999/xlink" width="20.21821" height="21.73136" viewBox="0,0,20.21821,21.73136"><g transform="translate(-241.53179,-198.20642)"><g data-paper-data="{&quot;isPaintingLayer&quot;:true}" fill-rule="nonzero" stroke-linecap="butt" stroke-linejoin="miter" stroke-miterlimit="10" stroke-dasharray="" stroke-dashoffset="0" style="mix-blend-mode: normal"><path d="M253.125,199.75c2.242,0 4.273,0.91 5.744,2.381c1.471,1.471 2.381,3.502 2.381,5.744c0,2.242 -0.91,4.273 -2.381,5.744c-1.471,1.471 -3.502,2.381 -5.744,2.381c-2.242,0 -4.273,-0.91 -5.744,-2.381c-1.471,-1.471 -2.381,-3.502 -2.381,-5.744c0,-2.242 0.91,-4.273 2.381,-5.744c1.471,-1.471 3.502,-2.381 5.744,-2.381z" fill="none" stroke="#ffff00" stroke-width="1"/><path d="M253.1,203.8c1.104,0 2.104,0.448 2.828,1.172c0.724,0.724 1.172,1.724 1.172,2.828c0,1.104 -0.448,2.104 -1.172,2.828c-0.724,0.724 -1.724,1.172 -2.828,1.172c-1.104,0 -2.104,-0.448 -2.828,-1.172c-0.724,-0.724 -1.172,-1.724 -1.172,-2.828c0,-1.104 0.448,-2.104 1.172,-2.828c0.724,-0.724 1.724,-1.172 2.828,-1.172z" fill="#ffff00" stroke="none" stroke-width="1"/><path d="M244.8881,204.23324c1.28863,-3.99391 5.19677,-5.69846 9.08743,-5.94834c1.89233,-0.12154 4.33412,-0.29457 5.57311,1.1409c1.09521,1.26889 1.4316,3.04009 1.48767,4.80669c0.30846,0.78368 0.47461,1.75049 0.45917,2.93046c-0.00697,0.53278 -0.11163,1.03982 -0.29498,1.52118c0.15719,0.8669 0.17808,1.69842 -0.37694,2.2711c-0.00462,0.00476 -0.00924,0.00953 -0.01387,0.01431c0.18487,2.10144 0.17847,4.02333 -0.32168,4.61783c-1.38275,1.64359 -3.76775,2.11364 -5.80191,2.80328c-1.8283,0.61985 -4.23908,2.36814 -5.68767,1.09202c-0.14062,-0.12388 -0.31476,-0.77559 -0.48561,-1.7248c-1.55011,-0.7045 -2.81446,-2.29859 -4.15871,-3.40722c-1.08544,-0.89518 -2.84919,-1.7321 -2.82201,-3.13879c0.03869,-2.00264 1.40203,-4.84026 3.35599,-6.97862z" fill="#0090ff" stroke="none" stroke-width="0.5"/></g></g></svg>