<svg version="1.1" xmlns="http://www.w3.org/2000/svg" xmlns:xlink="http://www.w3.org/1999/xlink" width="30.21525" height="30.64026" viewBox="0,0,30.21525,30.64026"><g transform="translate(-235.68475,-193.1125)"><g data-paper-data="{&quot;isPaintingLayer&quot;:true}" fill-rule="nonzero" stroke-linecap="butt" stroke-linejoin="miter" stroke-miterlimit="10" stroke-dasharray="" stroke-dashoffset="0" style="mix-blend-mode: normal"><path d="M253.1578,197.8497c2.7717,0 5.2826,1.125 7.1011,2.9436c1.8186,1.8185 2.9436,4.3294 2.9436,7.1011c0,2.7717 -1.125,5.2825 -2.9436,7.1011c-1.8185,1.8185 -4.3294,2.9435 -7.1011,2.9435c-2.7717,0 -5.2825,-1.125 -7.1011,-2.9435c-1.8185,-1.8186 -2.9435,-4.3294 -2.9435,-7.1011c0,-2.7717 1.125,-5.2826 2.9435,-7.1011c1.8186,-1.8186 4.3294,-2.9436 7.1011,-2.9436z" fill="none" stroke="#ffff00" stroke-width="2.47253"/><path d="M253.05,203.8c1.104,0 2.104,0.448 2.828,1.172c0.724,0.724 1.172,1.724 1.172,2.828c0,1.104 -0.448,2.104 -1.172,2.828c-0.724,0.724 -1.724,1.172 -2.828,1.172c-1.104,0 -2.104,-0.448 -2.828,-1.172c-0.724,-0.724 -1.172,-1.724 -1.172,-2.828c0,-1.104 0.448,-2.104 1.172,-2.828c0.724,-0.724 1.724,-1.172 2.828,-1.172z" fill="#ffff00" stroke="none" stroke-width="1"/><path d="M240.67424,219.04469c-1.60144,-1.36271 -2.38049,-2.75253 -2.57948,-4.12264c-0.67088,-1.30429 -0.99823,-3.03022 -1.60983,-4.31722c-2.81267,-5.91875 2.33687,-9.54721 6.96033,-12.33413c1.34462,-0.81051 2.67775,-2.56055 4.19228,-2.14688c0.71548,0.19542 1.32824,0.57929 1.88669,1.06282c0.43421,-0.53802 0.75704,-0.93645 0.89381,-1.10673l1.61862,-2.01523c0.45783,-0.57994 1.16712,-0.95218 1.96335,-0.95218c1.36317,0 2.47152,1.09104 2.49946,2.44752c0.47087,-0.04337 0.93951,-0.01112 1.404,0.13082c0.48516,0.14826 0.89731,0.34617 1.24577,0.58474l2.73057,-2.04793c0.42124,-0.32311 0.94829,-0.51515 1.5202,-0.51515c1.38071,0 2.5,1.11929 2.5,2.5c0,0.22872 -0.03071,0.45026 -0.08824,0.66073l-1.19908,4.79632c-0.18904,1.80681 -0.66115,3.52797 -1.34804,5.15992c0.03785,0.68957 0.01478,1.39768 -0.05779,2.10246l0.02021,0.3032c0.3342,1.67741 0.49195,3.31347 0.23595,4.60587c-0.0555,0.28019 -0.12795,0.55519 -0.21345,0.8262c0.13353,1.37627 0.18744,2.50213 0.04278,2.74292c-0.56825,0.94585 -1.40012,1.6873 -2.32438,2.33241l-1.05328,2.41634c-0.37306,0.9115 -1.26887,1.55364 -2.31467,1.55364c-0.6609,0 -1.2619,-0.25645 -1.70892,-0.67527c-1.01445,0.63856 -2.02404,1.02423 -2.84124,0.39499c-0.21425,-0.16498 -0.41162,-0.64607 -0.58716,-1.33332c-0.65839,0.04016 -1.32686,-0.07621 -1.99808,-0.23536c-0.66408,0.54279 -1.35831,0.90115 -2.10581,0.85851c-0.29526,0.12271 -0.61911,0.19045 -0.95878,0.19045c-1.38071,0 -2.5,-1.11929 -2.5,-2.5c0,-0.06863 0.00277,-0.13662 0.00819,-0.20386l0.10465,-1.46514c-0.04357,-0.0945 -0.08468,-0.19061 -0.12343,-0.28819c-0.44492,0.4081 -1.03808,0.65719 -1.68941,0.65719c-0.31921,0 -0.62444,-0.05982 -0.9051,-0.16887c-0.77273,0.24835 -1.36383,0.31961 -1.62067,0.10106z" fill="#0090ff" stroke="none" stroke-width="0.5"/></g></g></svg>